<svg xmlns="http://www.w3.org/2000/svg" viewBox="0 0 64 64"><defs><style>.cls-1{fill:#231f20;}</style></defs><title>Spread</title><g id="Spread"><path class="cls-1" d="M8,22H26A9,9,0,1,0,19.63,6.63,1,1,0,0,0,21,8.05a7,7,0,1,1,5,12H8A1,1,0,0,0,8,22Z"/><path class="cls-1" d="M45.64,18.64A9,9,0,1,1,52,34H29a1,1,0,0,0,0,2H52a11,11,0,1,0-7.78-18.78A1,1,0,0,0,45.64,18.64Z"/><path class="cls-1" d="M43,40H22a1,1,0,0,0,0,2H43a8,8,0,1,1-5.65,13.66,1,1,0,0,0-1.42,1.41A10,10,0,1,0,43,40Z"/><path class="cls-1" d="M33,51c-3.26,0-1.42.36-2.84-1.77a14.26,14.26,0,0,0,1.5-1.47,1,1,0,0,0-1.42-1.42c-1.78,1.78-1.34,1.34-1.47,1.5A5,5,0,0,0,27,47.1V45a1,1,0,0,0-2,0c0,3.26.36,1.42-1.77,2.84a14.26,14.26,0,0,0-1.47-1.5,1,1,0,0,0-1.42,1.42c1.78,1.78,1.34,1.34,1.5,1.47A5,5,0,0,0,21.1,51H19a1,1,0,0,0,0,2c3.26,0,1.42-.36,2.84,1.77a14.26,14.26,0,0,0-1.5,1.47A1,1,0,0,0,21.05,58c.53,0,.59-.18,2.12-1.7a.47.47,0,0,1,.06-.09A5,5,0,0,0,25,56.9V59a1,1,0,0,0,2,0c0-3.26-.36-1.42,1.77-2.84a.47.47,0,0,1,.06.09C30.37,57.78,30.42,58,31,58a1,1,0,0,0,.71-1.71c-1.78-1.78-1.34-1.34-1.5-1.47A5,5,0,0,0,30.9,53H33A1,1,0,0,0,33,51Z"/><path class="cls-1" d="M34.22,21.63l1.52,1.52a3.81,3.81,0,0,0-.43,1,13.77,13.77,0,0,0-2.14,0,1,1,0,0,0,0,2c2.6,0,1.89,0,2.14,0a4,4,0,0,0,.43,1.05L34.22,28.7a1,1,0,0,0,1.42,1.42l1.51-1.52A4,4,0,0,0,38.2,29c0,.25,0-.46,0,2.14a1,1,0,0,0,2,0c0-2.6,0-1.89,0-2.14a3.81,3.81,0,0,0,1-.43l1.52,1.52a1,1,0,0,0,1.41-1.42l-1.51-1.51A4,4,0,0,0,43,26.14a9.78,9.78,0,0,0,2.13,0,1,1,0,0,0,0-2c-2.6,0-1.88,0-2.13,0a3.81,3.81,0,0,0-.43-1l1.51-1.52a1,1,0,0,0-1.41-1.41l-1.52,1.51a3.81,3.81,0,0,0-1-.43c0-.25,0,.45,0-2.13a1,1,0,0,0-2,0c0,2.59,0,1.89,0,2.13a4,4,0,0,0-1.05.43l-1.51-1.51A1,1,0,0,0,34.22,21.63Z"/><path class="cls-1" d="M30,27H22a1,1,0,0,0,0,2h8A1,1,0,0,0,30,27Z"/><path class="cls-1" d="M21,17a3,3,0,1,0-3-3A3,3,0,0,0,21,17Zm0-4a1,1,0,0,1,0,2A1,1,0,0,1,21,13Z"/><path class="cls-1" d="M59,45a3,3,0,1,0,3,3A3,3,0,0,0,59,45Zm0,4a1,1,0,0,1,0-2A1,1,0,0,1,59,49Z"/><circle class="cls-1" cx="40" cy="47" r="2"/><circle class="cls-1" cx="42" cy="11" r="2"/><circle class="cls-1" cx="9" cy="52" r="2"/><path class="cls-1" d="M24,35a1,1,0,0,0,2,0A1,1,0,0,0,24,35Z"/><path class="cls-1" d="M4,22a1,1,0,0,0,0-2A1,1,0,0,0,4,22Z"/><path class="cls-1" d="M18.71,41.29c-2.57-2.57-2-2-2.11-2.08A6.93,6.93,0,0,0,17.92,36H20a1,1,0,0,0,0-2H17a1,1,0,0,1,0-2h.32a6.72,6.72,0,0,0-.73-1.2,23.44,23.44,0,0,0,2.12-2.09,1,1,0,0,0-1.42-1.42c-2.57,2.57-2,2-2.08,2.11A6.88,6.88,0,0,0,12,28.08V26a1,1,0,0,0-2,0v3a1,1,0,0,1-2,0v-.32c-1.27.61-1.09.81-1.24.66l-2-2.05a1,1,0,0,0-1.42,1.42c2.57,2.57,2,2,2.11,2.08A7.07,7.07,0,0,0,4.08,34H5a1,1,0,0,1,0,2H2a1,1,0,0,0,0,2H4.69a6.36,6.36,0,0,0,.72,1.2c-.18.15.28-.3-2.12,2.09a1,1,0,0,0,1.42,1.42c2.56-2.57,2-2,2.09-2.12A6.67,6.67,0,0,0,10,41.92V44a1,1,0,0,0,2,0V41a1,1,0,0,1,2,0v.32a6.72,6.72,0,0,0,1.2-.73,23.44,23.44,0,0,0,2.09,2.12A1,1,0,0,0,18.71,41.29ZM8.5,35a1.5,1.5,0,0,1,0-3A1.5,1.5,0,0,1,8.5,35ZM11,38a1,1,0,0,1,0-2A1,1,0,0,1,11,38Zm3-3a1,1,0,0,1,0-2A1,1,0,0,1,14,35Z"/></g></svg>